# xmcd
#
# Track frame offsets:
#	150
#	28650
#	45657
#	56837
#
# Disc length: 1037 seconds
#
# Revision: 5
# Processed by: cddbd v1.5.2PL0 Copyright (c) Steve Scherf et al.
# Submitted via: audiograbber 1.83.01
#
DISCID=30040b04
DTITLE=Adams, Bryan - Let's make a night to remember
DYEAR=1996
DGENRE=Rock
TTITLE0=Let's make a night to remember (LP version)
TTITLE1=Rock steady
TTITLE2=If ya wanna be bad ya gotta be good
TTITLE3=Hey little girl
EXTD=
EXTT0=
EXTT1=
EXTT2=
EXTT3=
PLAYORDER=
